<?xml version="1.0" encoding="UTF-8"?>
<svg width="30px" height="32px" viewBox="0 0 30 32" version="1.1" xmlns="http://www.w3.org/2000/svg" xmlns:xlink="http://www.w3.org/1999/xlink">
    <!-- Generator: Sketch 49 (51002) - http://www.bohemiancoding.com/sketch -->
    <title>Fill 1</title>
    <desc>Created with Sketch.</desc>
    <defs></defs>
    <g id="Page-1" stroke="none" stroke-width="1" fill="none" fill-rule="evenodd">
        <g id="Loading" transform="translate(-705.000000, -542.000000)" fill="#A1A1A1">
            <g id="Loader" transform="translate(684.000000, 522.000000)">
                <path d="M44.6464088,51.6574586 L27.7955801,51.6574586 L27.7955801,51.2154696 L32.4917127,49.0055249 L32.4917127,21.4917127 L32.4364641,21.4917127 C32.4364641,21.4917127 31.0552486,21.4917127 29.7845304,21.8232044 C29.1762431,22.0441989 28.4585635,22.2651934 27.5187845,23.1491713 C26.5801105,24.0331492 21.5524862,29.1712707 21.5524862,29.1712707 L21,28.9502762 L21.7734807,20 L32.6574586,20 L50.0607735,20 L51,28.9502762 L50.4475138,29.1712707 C50.4475138,29.1712707 45.4198895,24.0331492 44.480663,23.1491713 C43.5414365,22.2651934 42.8232044,22.0441989 42.2154696,21.8232044 C40.9447514,21.4917127 39.839779,21.5469613 39.839779,21.5469613 L39.839779,48.9502762 L44.5911602,51.160221 L44.6464088,51.6574586 Z" id="Fill-1"></path>
            </g>
        </g>
    </g>
</svg>